<svg width="65" height="64" viewBox="0 0 65 64" fill="none" xmlns="http://www.w3.org/2000/svg">
<rect x="2.5" y="2" width="60" height="60" rx="30" fill="#F44F4F"/>
<path opacity="0.4" d="M45.8334 32C45.8334 39.3638 39.8638 45.3333 32.5 45.3333C25.1362 45.3333 19.1667 39.3638 19.1667 32C19.1667 24.6362 25.1362 18.6666 32.5 18.6666C39.8638 18.6666 45.8334 24.6362 45.8334 32Z" fill="#FBFBFB"/>
<path fill-rule="evenodd" clip-rule="evenodd" d="M33.5 26.6666C33.5 26.1143 33.0523 25.6666 32.5 25.6666C31.9477 25.6666 31.5 26.1143 31.5 26.6666V31H27.1667C26.6144 31 26.1667 31.4477 26.1667 32C26.1667 32.5522 26.6144 33 27.1667 33H31.5V37.3333C31.5 37.8856 31.9477 38.3333 32.5 38.3333C33.0523 38.3333 33.5 37.8856 33.5 37.3333V33H37.8334C38.3856 33 38.8334 32.5522 38.8334 32C38.8334 31.4477 38.3856 31 37.8334 31H33.5V26.6666Z" fill="#FBFBFB"/>
<rect x="2.5" y="2" width="60" height="60" rx="30" stroke="#FBFBFB" stroke-width="4"/>
</svg>
