<svg width="18" height="18" viewBox="0 0 18 18" fill="none" xmlns="http://www.w3.org/2000/svg">
<path d="M11.25 12L11.1029 12.7354C11.4346 12.8018 11.7696 12.6379 11.9208 12.3354L11.25 12ZM6 6.75L5.66459 6.07918C5.36208 6.23043 5.19824 6.56544 5.26456 6.89709L6 6.75ZM6.26551 6.61724L6.60092 7.28806L6.60092 7.28806L6.26551 6.61724ZM6.98741 4.71852L7.68376 4.43997L7.68376 4.43997L6.98741 4.71852ZM6.37717 3.19291L5.68081 3.47146L5.68081 3.47146L6.37717 3.19291ZM14.8071 11.6228L14.5285 12.3192L14.5285 12.3192L14.8071 11.6228ZM13.2815 11.0126L13.56 10.3162L13.56 10.3162L13.2815 11.0126ZM11.3828 11.7345L12.0536 12.0699L12.0536 12.0699L11.3828 11.7345ZM12 8.25C12 8.66421 12.3358 9 12.75 9C13.1642 9 13.5 8.66421 13.5 8.25H12ZM12.5216 7.10195L13.2145 6.81494L13.2145 6.81494L12.5216 7.10195ZM10.8981 5.47836L11.1851 4.78545L11.1851 4.78545L10.8981 5.47836ZM9.75 4.5C9.33579 4.5 9 4.83579 9 5.25C9 5.66421 9.33579 6 9.75 6V4.5ZM15 8.25C15 8.66421 15.3358 9 15.75 9C16.1642 9 16.5 8.66421 16.5 8.25H15ZM15.2933 5.9539L15.9862 5.66689L15.9862 5.66689L15.2933 5.9539ZM12.0461 2.70672L12.3331 2.01381L12.3331 2.01381L12.0461 2.70672ZM9.75 1.5C9.33579 1.5 9 1.83579 9 2.25C9 2.66421 9.33579 3 9.75 3V1.5ZM15 13.0155V14.25H16.5V13.0155H15ZM3.75 3H4.98445V1.5H3.75V3ZM11.25 12C11.3971 11.2646 11.3973 11.2646 11.3975 11.2646C11.3976 11.2647 11.3978 11.2647 11.3979 11.2647C11.3981 11.2648 11.3983 11.2648 11.3985 11.2649C11.3989 11.2649 11.3991 11.265 11.3993 11.265C11.3996 11.2651 11.3994 11.265 11.3988 11.2649C11.3977 11.2647 11.3948 11.2641 11.3903 11.2631C11.3812 11.2611 11.3655 11.2575 11.3438 11.2522C11.3003 11.2416 11.2326 11.2242 11.1452 11.1984C10.97 11.1469 10.7173 11.0629 10.4204 10.9356C9.82333 10.6797 9.06891 10.2583 8.40533 9.59467L7.34467 10.6553C8.18109 11.4917 9.11417 12.0078 9.82956 12.3144C10.189 12.4684 10.4987 12.5718 10.722 12.6375C10.8338 12.6704 10.9244 12.6939 10.9892 12.7097C11.0217 12.7176 11.0478 12.7236 11.0669 12.7278C11.0764 12.7299 11.0843 12.7316 11.0903 12.7328C11.0933 12.7335 11.0959 12.734 11.098 12.7344C11.099 12.7347 11.1 12.7348 11.1008 12.735C11.1012 12.7351 11.1016 12.7352 11.1019 12.7352C11.1021 12.7353 11.1024 12.7353 11.1024 12.7353C11.1027 12.7354 11.1029 12.7354 11.25 12ZM8.40533 9.59467C7.74175 8.93109 7.32026 8.17667 7.06436 7.57956C6.93715 7.28273 6.85308 7.02997 6.80156 6.85478C6.77584 6.76735 6.75838 6.69975 6.74779 6.65623C6.7425 6.63449 6.73895 6.61881 6.73694 6.60973C6.73594 6.6052 6.73533 6.60231 6.73508 6.60115C6.73496 6.60057 6.73493 6.60042 6.73499 6.60071C6.73502 6.60086 6.73507 6.60111 6.73515 6.60148C6.73518 6.60166 6.73523 6.60187 6.73528 6.60211C6.7353 6.60223 6.73534 6.60243 6.73535 6.60249C6.73539 6.6027 6.73544 6.60291 6 6.75C5.26456 6.89709 5.26461 6.89732 5.26466 6.89755C5.26468 6.89764 5.26472 6.89788 5.26476 6.89806C5.26483 6.89841 5.26491 6.89879 5.26499 6.8992C5.26516 6.90003 5.26535 6.90096 5.26556 6.90202C5.266 6.90412 5.26653 6.90668 5.26716 6.9097C5.26843 6.91572 5.2701 6.92355 5.27221 6.93311C5.27644 6.95223 5.2824 6.9783 5.29029 7.01076C5.30607 7.07564 5.32963 7.16624 5.36251 7.27803C5.42817 7.50128 5.5316 7.81102 5.68564 8.17044C5.99224 8.88583 6.50825 9.81891 7.34467 10.6553L8.40533 9.59467ZM6.33541 7.42082L6.60092 7.28806L5.9301 5.94642L5.66459 6.07918L6.33541 7.42082ZM7.68376 4.43997L7.07352 2.91437L5.68081 3.47146L6.29105 4.99706L7.68376 4.43997ZM15.0856 10.9265L13.56 10.3162L13.0029 11.709L14.5285 12.3192L15.0856 10.9265ZM10.7119 11.3991L10.5792 11.6646L11.9208 12.3354L12.0536 12.0699L10.7119 11.3991ZM13.56 10.3162C12.4735 9.88164 11.2353 10.3524 10.7119 11.3991L12.0536 12.0699C12.228 11.721 12.6408 11.5641 13.0029 11.709L13.56 10.3162ZM6.60092 7.28806C7.64758 6.76474 8.11837 5.52648 7.68376 4.43997L6.29105 4.99706C6.43592 5.35923 6.27899 5.77198 5.9301 5.94642L6.60092 7.28806ZM4.98445 3C5.29113 3 5.56691 3.18671 5.68081 3.47146L7.07352 2.91437C6.73183 2.06014 5.90449 1.5 4.98445 1.5V3ZM16.5 13.0155C16.5 12.0955 15.9399 11.2682 15.0856 10.9265L14.5285 12.3192C14.8133 12.4331 15 12.7089 15 13.0155H16.5ZM14.25 15C8.0368 15 3 9.9632 3 3.75H1.5C1.5 10.7916 7.20837 16.5 14.25 16.5V15ZM14.25 16.5C15.4926 16.5 16.5 15.4926 16.5 14.25H15C15 14.6642 14.6642 15 14.25 15V16.5ZM3 3.75C3 3.33579 3.33579 3 3.75 3V1.5C2.50736 1.5 1.5 2.50736 1.5 3.75H3ZM13.5 8.25C13.5 7.75754 13.403 7.26991 13.2145 6.81494L11.8287 7.38896C11.9418 7.66194 12 7.95453 12 8.25H13.5ZM13.2145 6.81494C13.0261 6.35997 12.7499 5.94657 12.4017 5.59835L11.341 6.65901C11.5499 6.86794 11.7157 7.11598 11.8287 7.38896L13.2145 6.81494ZM12.4017 5.59835C12.0534 5.25013 11.64 4.97391 11.1851 4.78545L10.611 6.17127C10.884 6.28434 11.1321 6.45008 11.341 6.65901L12.4017 5.59835ZM11.1851 4.78545C10.7301 4.597 10.2425 4.5 9.75 4.5V6C10.0455 6 10.3381 6.0582 10.611 6.17127L11.1851 4.78545ZM16.5 8.25C16.5 7.36358 16.3254 6.48583 15.9862 5.66689L14.6004 6.24091C14.8642 6.87787 15 7.56056 15 8.25H16.5ZM15.9862 5.66689C15.647 4.84794 15.1498 4.10382 14.523 3.47703L13.4623 4.53769C13.9498 5.0252 14.3365 5.60395 14.6004 6.24091L15.9862 5.66689ZM14.523 3.47703C13.8962 2.85023 13.1521 2.35303 12.3331 2.01381L11.7591 3.39963C12.396 3.66347 12.9748 4.05018 13.4623 4.53769L14.523 3.47703ZM12.3331 2.01381C11.5142 1.67459 10.6364 1.5 9.75 1.5V3C10.4394 3 11.1221 3.1358 11.7591 3.39963L12.3331 2.01381Z" fill="#60626A"/>
</svg>
