<svg width="20" height="20" viewBox="0 0 20 20" fill="none" xmlns="http://www.w3.org/2000/svg">
<path fill-rule="evenodd" clip-rule="evenodd" d="M2.29169 5.00001C2.29169 3.50423 3.50425 2.29167 5.00002 2.29167H10C10.3452 2.29167 10.625 2.01185 10.625 1.66667C10.625 1.32149 10.3452 1.04167 10 1.04167H5.00002C2.81389 1.04167 1.04169 2.81388 1.04169 5.00001V15C1.04169 17.1861 2.81389 18.9583 5.00002 18.9583H15C17.1861 18.9583 18.9584 17.1861 18.9584 15V10C18.9584 9.65483 18.6785 9.37501 18.3334 9.37501C17.9882 9.37501 17.7084 9.65483 17.7084 10V15C17.7084 16.4958 16.4958 17.7083 15 17.7083H5.00002C3.50425 17.7083 2.29169 16.4958 2.29169 15V5.00001ZM13.6826 2.23091C14.4349 1.47859 15.6546 1.47859 16.4069 2.23091L17.7691 3.5931C18.5214 4.34541 18.5214 5.56516 17.7691 6.31747L16.5614 7.52524C16.4665 7.47829 16.3668 7.42752 16.2634 7.37307C15.5672 7.00655 14.741 6.49214 14.1245 5.87558C13.5079 5.25902 12.9935 4.43288 12.627 3.7367C12.5725 3.63325 12.5218 3.53348 12.4748 3.43866L13.6826 2.23091ZM13.2406 6.75947C13.9702 7.48906 14.8981 8.06329 15.6329 8.45368L10.8834 13.2032C10.5886 13.4979 10.2063 13.6891 9.79364 13.7481L6.93304 14.1567C6.29736 14.2475 5.75248 13.7027 5.84329 13.067L6.25195 10.2064C6.3109 9.79376 6.50209 9.41137 6.79682 9.11664L11.5464 4.36711C11.9367 5.10196 12.511 6.02985 13.2406 6.75947Z" fill="#60626A"/>
</svg>
