<svg width="25" height="24" viewBox="0 0 25 24" fill="none" xmlns="http://www.w3.org/2000/svg">
<path d="M20.5 8H18.5V20C18.5 21.1046 19.3954 22 20.5 22C21.6046 22 22.5 21.1046 22.5 20V10C22.5 8.89543 21.6046 8 20.5 8Z" fill="#60626A"/>
<path opacity="0.4" d="M15.5 2H5.5C3.84315 2 2.5 3.34315 2.5 5V19C2.5 20.6569 3.84315 22 5.5 22H20.5C19.3954 22 18.5 21.1046 18.5 20V5C18.5 3.34315 17.1569 2 15.5 2Z" fill="#60626A"/>
<path fill-rule="evenodd" clip-rule="evenodd" d="M5.75 7C5.75 6.58579 6.08579 6.25 6.5 6.25H14.5C14.9142 6.25 15.25 6.58579 15.25 7C15.25 7.41421 14.9142 7.75 14.5 7.75H6.5C6.08579 7.75 5.75 7.41421 5.75 7Z" fill="#60626A"/>
<path fill-rule="evenodd" clip-rule="evenodd" d="M5.75 12C5.75 11.5858 6.08579 11.25 6.5 11.25L14.5 11.25C14.9142 11.25 15.25 11.5858 15.25 12C15.25 12.4142 14.9142 12.75 14.5 12.75L6.5 12.75C6.08579 12.75 5.75 12.4142 5.75 12Z" fill="#60626A"/>
<path fill-rule="evenodd" clip-rule="evenodd" d="M5.75 17C5.75 16.5858 6.08579 16.25 6.5 16.25H10.5C10.9142 16.25 11.25 16.5858 11.25 17C11.25 17.4142 10.9142 17.75 10.5 17.75H6.5C6.08579 17.75 5.75 17.4142 5.75 17Z" fill="#60626A"/>
</svg>
