<svg width="20" height="20" viewBox="0 0 20 20" fill="none" xmlns="http://www.w3.org/2000/svg">
<path fill-rule="evenodd" clip-rule="evenodd" d="M12 1.66666H4.66663C3.00977 1.66666 1.66663 3.00981 1.66663 4.66666V15.3333C1.66663 16.9902 3.00977 18.3333 4.66663 18.3333H16.6666C15.7462 18.3333 15 17.5871 15 16.6667V6.66666V4.66666C15 3.00981 13.6568 1.66666 12 1.66666ZM4.37496 5.83333C4.37496 5.48815 4.65478 5.20833 4.99996 5.20833H11.6666C12.0118 5.20833 12.2916 5.48815 12.2916 5.83333C12.2916 6.17851 12.0118 6.45833 11.6666 6.45833H4.99996C4.65478 6.45833 4.37496 6.17851 4.37496 5.83333ZM4.99996 9.375C4.65478 9.375 4.37496 9.65482 4.37496 10C4.37496 10.3452 4.65478 10.625 4.99996 10.625H11.6666C12.0118 10.625 12.2916 10.3452 12.2916 10C12.2916 9.65482 12.0118 9.375 11.6666 9.375H4.99996ZM4.37496 14.1667C4.37496 13.8215 4.65478 13.5417 4.99996 13.5417H8.33329C8.67847 13.5417 8.95829 13.8215 8.95829 14.1667C8.95829 14.5118 8.67847 14.7917 8.33329 14.7917H4.99996C4.65478 14.7917 4.37496 14.5118 4.37496 14.1667ZM18.3333 16.0417V8.33333C18.3333 7.41286 17.5871 6.66666 16.6666 6.66666H16.25V16.0417C16.25 16.617 16.7163 17.0833 17.2916 17.0833C17.8669 17.0833 18.3333 16.617 18.3333 16.0417Z" fill="#02040B"/>
</svg>
