<svg width="20" height="20" viewBox="0 0 20 20" fill="none" xmlns="http://www.w3.org/2000/svg">
<path fill-rule="evenodd" clip-rule="evenodd" d="M18.3333 10C18.3333 14.6024 14.6023 18.3333 9.99996 18.3333C5.39759 18.3333 1.66663 14.6024 1.66663 10C1.66663 5.39763 5.39759 1.66667 9.99996 1.66667C14.6023 1.66667 18.3333 5.39763 18.3333 10ZM9.99996 6.45834C9.42466 6.45834 8.95829 6.92471 8.95829 7.50001C8.95829 7.84518 8.67847 8.12501 8.33329 8.12501C7.98811 8.12501 7.70829 7.84518 7.70829 7.50001C7.70829 6.23435 8.73431 5.20834 9.99996 5.20834C11.2656 5.20834 12.2916 6.23435 12.2916 7.50001C12.2916 7.95529 12.1582 8.38132 11.9281 8.73886C11.784 8.96282 11.6156 9.17662 11.4602 9.3697L11.3764 9.47355C11.2475 9.63309 11.1292 9.77954 11.0199 9.92982C10.7502 10.3004 10.625 10.5789 10.625 10.8333V11.25C10.625 11.5952 10.3451 11.875 9.99996 11.875C9.65478 11.875 9.37496 11.5952 9.37496 11.25V10.8333C9.37496 10.1673 9.70197 9.61648 10.0091 9.19438C10.1389 9.01603 10.2811 8.84012 10.4104 8.68017L10.4863 8.58608C10.6407 8.39428 10.772 8.22555 10.877 8.06246C10.9811 7.90058 11.0416 7.70831 11.0416 7.50001C11.0416 6.92471 10.5753 6.45834 9.99996 6.45834ZM10.625 13.3333C10.625 12.9882 10.3451 12.7083 9.99996 12.7083C9.65478 12.7083 9.37496 12.9882 9.37496 13.3333V14.1667C9.37496 14.5119 9.65478 14.7917 9.99996 14.7917C10.3451 14.7917 10.625 14.5119 10.625 14.1667V13.3333Z" fill="#02040B"/>
</svg>
