<svg width="25" height="24" viewBox="0 0 25 24" fill="none" xmlns="http://www.w3.org/2000/svg">
<path d="M5 10.5C3.61929 10.5 2.5 9.38071 2.5 8C2.5 6.61929 3.61929 5.5 5 5.5C6.38071 5.5 7.5 6.61929 7.5 8C7.5 9.38071 6.38071 10.5 5 10.5Z" fill="#A8ABB4"/>
<path opacity="0.4" d="M5 18.5C3.61929 18.5 2.5 17.3807 2.5 16C2.5 14.6193 3.61929 13.5 5 13.5C6.38071 13.5 7.5 14.6193 7.5 16C7.5 17.3807 6.38071 18.5 5 18.5Z" fill="#A8ABB4"/>
<path opacity="0.4" fill-rule="evenodd" clip-rule="evenodd" d="M9.75 6.25C9.75 5.83579 10.0858 5.5 10.5 5.5L16.5 5.5C16.9142 5.5 17.25 5.83579 17.25 6.25C17.25 6.66421 16.9142 7 16.5 7L10.5 7C10.0858 7 9.75 6.66421 9.75 6.25Z" fill="#A8ABB4"/>
<path fill-rule="evenodd" clip-rule="evenodd" d="M9.75 14.25C9.75 13.8358 10.0858 13.5 10.5 13.5H16.5C16.9142 13.5 17.25 13.8358 17.25 14.25C17.25 14.6642 16.9142 15 16.5 15H10.5C10.0858 15 9.75 14.6642 9.75 14.25Z" fill="#A8ABB4"/>
<path opacity="0.4" fill-rule="evenodd" clip-rule="evenodd" d="M9.75 9.75C9.75 9.33579 10.0858 9 10.5 9L22.5 9C22.9142 9 23.25 9.33579 23.25 9.75C23.25 10.1642 22.9142 10.5 22.5 10.5L10.5 10.5C10.0858 10.5 9.75 10.1642 9.75 9.75Z" fill="#A8ABB4"/>
<path fill-rule="evenodd" clip-rule="evenodd" d="M9.75 17.75C9.75 17.3358 10.0858 17 10.5 17H22.5C22.9142 17 23.25 17.3358 23.25 17.75C23.25 18.1642 22.9142 18.5 22.5 18.5H10.5C10.0858 18.5 9.75 18.1642 9.75 17.75Z" fill="#A8ABB4"/>
</svg>
