<svg width="18" height="18" viewBox="0 0 18 18" fill="none" xmlns="http://www.w3.org/2000/svg">
<path d="M12.5625 8.95506V16.3559C13.8318 16.0139 15.2166 15.0633 15.9584 14.5024C16.3085 14.2377 16.5 13.8202 16.5 13.3813V6.12923C16.5 5.48914 15.7291 5.11796 15.1978 5.47498C14.8172 5.73072 14.3794 6.00101 13.9212 6.23738C13.8524 6.68599 13.7235 7.11534 13.5432 7.51654C13.302 8.05305 12.9684 8.53936 12.5625 8.95506Z" fill="#60626A"/>
<path d="M6.5625 9.81961V14.064C7.52107 14.1441 8.26053 14.7066 8.99999 15.2692C9.73946 15.8317 10.4789 16.3942 11.4375 16.4743V9.8194C10.7173 10.2246 9.88584 10.4559 8.99996 10.4559C8.11434 10.4559 7.28288 10.2248 6.5625 9.81961Z" fill="#60626A"/>
<path d="M4.02918 5.18616C3.23735 5.60014 2.51082 6.11085 2.04161 6.46563C1.69153 6.73034 1.5 7.14787 1.5 7.58676V14.8388C1.5 15.4789 2.27092 15.8501 2.8022 15.4931C3.55235 14.989 4.52481 14.4284 5.4375 14.1825V8.95532C4.69985 8.19982 4.20049 7.21048 4.06065 6.10876C4.03433 5.90138 4.02081 5.69042 4.02081 5.47678C4.02081 5.37929 4.02363 5.28239 4.02918 5.18616Z" fill="#60626A"/>
<path fill-rule="evenodd" clip-rule="evenodd" d="M12.9619 5.89138C12.976 5.7551 12.9832 5.61679 12.9832 5.47679C12.9832 3.27686 11.1998 1.49347 8.99992 1.49347C7.13146 1.49347 5.56347 2.77993 5.13339 4.51543C5.05709 4.82331 5.0166 5.14532 5.0166 5.47679C5.0166 5.6484 5.02745 5.81748 5.04851 5.98338C5.29738 7.9441 6.97161 9.4601 8.99992 9.4601C10.6185 9.4601 12.0116 8.49469 12.6349 7.10827C12.8048 6.73026 12.9175 6.32095 12.9619 5.89138ZM7.17264 5.75283L8.17857 6.08814C8.27769 6.12118 8.35547 6.19896 8.38851 6.29808L8.72382 7.30401C8.82034 7.59357 9.2236 7.61034 9.34383 7.3298L10.6647 4.24784C10.7827 3.97242 10.5042 3.69394 10.2288 3.81197L7.14685 5.13281C6.8663 5.25305 6.88308 5.6563 7.17264 5.75283Z" fill="#60626A"/>
</svg>
