<svg width="40" height="40" viewBox="0 0 40 40" fill="none" xmlns="http://www.w3.org/2000/svg">
<path d="M20 35C22.3084 35 24.2722 33.6086 25 31.6666H15C15.7278 33.6086 17.6916 35 20 35Z" fill="#60626A"/>
<path opacity="0.4" fill-rule="evenodd" clip-rule="evenodd" d="M22.8158 6.25671C22.1232 5.48526 21.1182 5 19.9998 5C17.9104 5 16.2166 6.69382 16.2166 8.78324V8.9561C12.6459 10.1787 10.0025 13.0844 9.60061 16.6253L8.8553 23.1921C8.72106 24.3748 8.22224 25.5026 7.41281 26.4535C5.58443 28.6015 7.32389 31.6667 10.3712 31.6667H29.6285C32.6758 31.6667 34.4152 28.6015 32.5869 26.4535C31.7774 25.5026 31.2786 24.3748 31.1444 23.1921L30.3991 16.6253C30.3887 16.5337 30.3768 16.4426 30.3634 16.3519C29.7233 16.5563 29.0411 16.6667 28.3332 16.6667C24.6513 16.6667 21.6665 13.6819 21.6665 10C21.6665 8.61241 22.0904 7.32383 22.8158 6.25671Z" fill="#60626A"/>
<ellipse cx="28.333" cy="10" rx="5" ry="5" fill="#60626A"/>
</svg>
