<svg width="20" height="20" viewBox="0 0 20 20" fill="none" xmlns="http://www.w3.org/2000/svg">
<path fill-rule="evenodd" clip-rule="evenodd" d="M6.46899 1.90704C6.79646 1.79788 7.15041 1.97486 7.25956 2.30232C7.36871 2.62979 7.19174 2.98374 6.86428 3.09289L6.73598 3.13566C5.42959 3.57112 4.40446 4.59625 3.96899 5.90265L3.92623 6.03094C3.81707 6.35841 3.46312 6.53538 3.13566 6.42623C2.80819 6.31707 2.63122 5.96312 2.74037 5.63566L2.78314 5.50737C3.34302 3.82771 4.66105 2.50969 6.3407 1.9498L6.46899 1.90704ZM13.5309 1.90704C13.2034 1.79788 12.8495 1.97486 12.7403 2.30232C12.6312 2.62979 12.8081 2.98374 13.1356 3.09289L13.2639 3.13566C14.5703 3.57112 15.5954 4.59625 16.0309 5.90265L16.0736 6.03094C16.1828 6.35841 16.5367 6.53538 16.8642 6.42623C17.1917 6.31707 17.3686 5.96312 17.2595 5.63566L17.2167 5.50737C16.6568 3.82771 15.3388 2.50969 13.6592 1.9498L13.5309 1.90704ZM9.99993 3.33333C7.30905 3.33333 5.04478 5.40905 4.73296 8.1617L4.44556 10.6987C4.37415 11.3292 4.11865 11.9224 3.71284 12.4C2.85167 13.4137 3.55061 15 4.85838 15H15.1415C16.4493 15 17.1482 13.4137 16.287 12.4C15.8812 11.9224 15.6257 11.3292 15.5543 10.6987L15.2669 8.1617C14.9551 5.40905 12.6908 3.33333 9.99993 3.33333ZM9.99993 18.3333C11.1304 18.3333 12.0956 17.666 12.4767 16.7262C12.4926 16.6871 12.4999 16.645 12.4999 16.6027C12.4999 16.4079 12.342 16.25 12.1472 16.25H7.85267C7.65786 16.25 7.49993 16.4079 7.49993 16.6027C7.49993 16.645 7.50729 16.6871 7.52317 16.7262C7.90431 17.666 8.86949 18.3333 9.99993 18.3333Z" fill="#02040B"/>
</svg>
