<svg width="18" height="18" viewBox="0 0 18 18" fill="none" xmlns="http://www.w3.org/2000/svg">
<path fill-rule="evenodd" clip-rule="evenodd" d="M6.90305 3.10182C7.56898 2.91347 8.27221 2.8125 8.99996 2.8125C9.72771 2.8125 10.4309 2.91347 11.0969 3.10182C11.3958 3.18636 11.7067 3.01257 11.7912 2.71364C11.8758 2.41471 11.702 2.10383 11.4031 2.01928C10.6385 1.80303 9.83225 1.6875 8.99996 1.6875C8.16767 1.6875 7.36144 1.80303 6.59687 2.01928C6.29794 2.10383 6.12415 2.41471 6.20869 2.71364C6.29324 3.01257 6.60412 3.18636 6.90305 3.10182ZM9 16.5C5.47918 16.5 2.625 13.6458 2.625 10.125C2.625 6.60418 5.47918 3.75 9 3.75C12.5208 3.75 15.375 6.60418 15.375 10.125C15.375 10.7775 15.277 11.4072 15.0948 12H14.5C12.5035 12 10.8486 13.4627 10.5485 15.375H15.375C15.6857 15.375 15.9375 15.6268 15.9375 15.9375C15.9375 16.2482 15.6857 16.5 15.375 16.5H9.375C9.34593 16.5 9.31738 16.4978 9.2895 16.4935C9.19354 16.4978 9.09702 16.5 9 16.5ZM9 6.1875C9.31066 6.1875 9.5625 6.43934 9.5625 6.75V9.52551C9.89876 9.72002 10.125 10.0836 10.125 10.5C10.125 11.1213 9.62132 11.625 9 11.625C8.37868 11.625 7.875 11.1213 7.875 10.5C7.875 10.0836 8.10124 9.72002 8.4375 9.52551V6.75C8.4375 6.43934 8.68934 6.1875 9 6.1875ZM12.1875 13.6875C12.1875 13.3768 12.4393 13.125 12.75 13.125H15.375C15.6857 13.125 15.9375 13.3768 15.9375 13.6875C15.9375 13.9982 15.6857 14.25 15.375 14.25H12.75C12.4393 14.25 12.1875 13.9982 12.1875 13.6875Z" fill="#60626A"/>
</svg>
