<svg width="17" height="16" viewBox="0 0 17 16" fill="none" xmlns="http://www.w3.org/2000/svg">
<path fill-rule="evenodd" clip-rule="evenodd" d="M9.16667 1.5C8.89052 1.5 8.66667 1.72386 8.66667 2C8.66667 2.27614 8.89052 2.5 9.16667 2.5C9.80139 2.5 10.4299 2.62502 11.0163 2.86792C11.6027 3.11081 12.1355 3.46683 12.5843 3.91565C13.0332 4.36447 13.3892 4.89729 13.6321 5.4837C13.875 6.0701 14 6.69861 14 7.33333C14 7.60948 14.2239 7.83333 14.5 7.83333C14.7761 7.83333 15 7.60948 15 7.33333C15 6.56729 14.8491 5.80875 14.556 5.10101C14.2628 4.39328 13.8331 3.75022 13.2915 3.20854C12.7498 2.66687 12.1067 2.23719 11.399 1.94404C10.6913 1.65088 9.93271 1.5 9.16667 1.5ZM14.5 12.6667V11.5694C14.5 11.0242 14.1681 10.5339 13.6619 10.3314L12.3058 9.78897C11.6619 9.53143 10.9281 9.81041 10.618 10.4307L10.5 10.6667C10.5 10.6667 8.83333 10.3333 7.5 9C6.16667 7.66667 5.83333 6 5.83333 6L6.06934 5.88199C6.68959 5.57187 6.96857 4.83809 6.71103 4.19424L6.16859 2.83815C5.96611 2.33194 5.47583 2 4.93062 2H3.83333C3.09695 2 2.5 2.59695 2.5 3.33333C2.5 9.22437 7.27563 14 13.1667 14C13.903 14 14.5 13.403 14.5 12.6667ZM8.66667 4.66667C8.66667 4.39052 8.89052 4.16667 9.16667 4.16667C9.58252 4.16667 9.9943 4.24857 10.3785 4.40771C10.7627 4.56685 11.1118 4.80011 11.4058 5.09416C11.6999 5.38821 11.9331 5.7373 12.0923 6.1215C12.2514 6.5057 12.3333 6.91748 12.3333 7.33333C12.3333 7.60948 12.1095 7.83333 11.8333 7.83333C11.5572 7.83333 11.3333 7.60948 11.3333 7.33333C11.3333 7.0488 11.2773 6.76706 11.1684 6.50419C11.0595 6.24131 10.8999 6.00246 10.6987 5.80127C10.4975 5.60008 10.2587 5.44048 9.99581 5.33159C9.73294 5.22271 9.4512 5.16667 9.16667 5.16667C8.89052 5.16667 8.66667 4.94281 8.66667 4.66667Z" fill="#FBFBFB"/>
</svg>
