<svg width="18" height="18" viewBox="0 0 18 18" fill="none" xmlns="http://www.w3.org/2000/svg">
<path d="M7.49999 9.75L6.96966 10.2803C7.18416 10.4948 7.50675 10.559 7.787 10.4429C8.06726 10.3268 8.24999 10.0533 8.24999 9.75H7.49999ZM10.5 9.75H9.74999C9.74999 10.1642 10.0858 10.5 10.5 10.5V9.75ZM6.43933 8.68934L5.909 9.21967L5.909 9.21967L6.43933 8.68934ZM3.96394 10.3707L3.28117 10.6811L3.28117 10.6811L3.96394 10.3707ZM5.95063 14.7414L6.6334 14.4311L5.95063 14.7414ZM14.3638 14.9884L13.7126 14.6163L13.7126 14.6163L14.3638 14.9884ZM14.6047 14.5667L15.2559 14.9388L15.2559 14.9388L14.6047 14.5667ZM3.74999 6C3.74999 6.41421 4.08577 6.75 4.49999 6.75C4.9142 6.75 5.24999 6.41421 5.24999 6H3.74999ZM12.75 6C12.75 6.41421 13.0858 6.75 13.5 6.75C13.9142 6.75 14.25 6.41421 14.25 6H12.75ZM8.24999 9.75V5.25H6.74999V9.75H8.24999ZM9.74999 5.25V9.75H11.25V5.25H9.74999ZM10.5 10.5H12V9H10.5V10.5ZM11.759 15.75H8.68173V17.25H11.759V15.75ZM5.32949 9H5.37867V7.5H5.32949V9ZM5.909 9.21967L6.96966 10.2803L8.03032 9.21967L6.96966 8.15901L5.909 9.21967ZM3.28117 10.6811L5.26785 15.0518L6.6334 14.4311L4.64672 10.0604L3.28117 10.6811ZM15.0149 15.3605L15.2559 14.9388L13.9535 14.1946L13.7126 14.6163L15.0149 15.3605ZM15.75 13.0783V12.75H14.25V13.0783H15.75ZM15.2559 14.9388C15.5797 14.3722 15.75 13.7309 15.75 13.0783H14.25C14.25 13.4699 14.1478 13.8546 13.9535 14.1946L15.2559 14.9388ZM5.37867 9C5.57758 9 5.76835 9.07902 5.909 9.21967L6.96966 8.15901C6.5477 7.73705 5.97541 7.5 5.37867 7.5V9ZM5.32949 7.5C3.69309 7.5 2.60402 9.19133 3.28117 10.6811L4.64672 10.0604C4.421 9.56378 4.78403 9 5.32949 9V7.5ZM11.759 17.25C13.1047 17.25 14.3473 16.5289 15.0149 15.3605L13.7126 14.6163C13.312 15.3174 12.5664 15.75 11.759 15.75V17.25ZM12 10.5C13.2426 10.5 14.25 11.5074 14.25 12.75H15.75C15.75 10.6789 14.0711 9 12 9V10.5ZM8.99999 4.5C9.4142 4.5 9.74999 4.83579 9.74999 5.25H11.25C11.25 4.00736 10.2426 3 8.99999 3V4.5ZM8.68173 15.75C7.79941 15.75 6.99851 15.2343 6.6334 14.4311L5.26785 15.0518C5.87637 16.3905 7.21119 17.25 8.68173 17.25V15.75ZM8.24999 5.25C8.24999 4.83579 8.58577 4.5 8.99999 4.5V3C7.75735 3 6.74999 4.00736 6.74999 5.25H8.24999ZM5.24999 6C5.24999 3.92893 6.92892 2.25 8.99999 2.25V0.75C6.10049 0.75 3.74999 3.10051 3.74999 6H5.24999ZM8.99999 2.25C11.0711 2.25 12.75 3.92893 12.75 6H14.25C14.25 3.10051 11.8995 0.75 8.99999 0.75V2.25Z" fill="#60626A"/>
</svg>
