<svg width="20" height="20" viewBox="0 0 20 20" fill="none" xmlns="http://www.w3.org/2000/svg">
<path fill-rule="evenodd" clip-rule="evenodd" d="M18.3332 9.99999C18.3332 14.6024 14.6022 18.3333 9.99984 18.3333C5.39747 18.3333 1.6665 14.6024 1.6665 9.99999C1.6665 5.39762 5.39747 1.66666 9.99984 1.66666C14.6022 1.66666 18.3332 5.39762 18.3332 9.99999ZM12.7988 12.7989C12.5547 13.043 12.159 13.043 11.9149 12.7989L9.99985 10.8838L8.08475 12.7989C7.84068 13.043 7.44495 13.043 7.20087 12.7989C6.95679 12.5548 6.95679 12.1591 7.20087 11.915L9.11596 9.99994L7.20088 8.08486C6.95681 7.84078 6.95681 7.44505 7.20088 7.20098C7.44496 6.9569 7.84069 6.9569 8.08477 7.20098L9.99985 9.11606L11.9149 7.20098C12.159 6.95691 12.5547 6.95691 12.7988 7.20098C13.0429 7.44506 13.0429 7.84079 12.7988 8.08487L10.8837 9.99994L12.7988 11.915C13.0429 12.1591 13.0429 12.5548 12.7988 12.7989Z" fill="#60626A"/>
</svg>
