<svg width="20" height="20" viewBox="0 0 20 20" fill="none" xmlns="http://www.w3.org/2000/svg">
<path fill-rule="evenodd" clip-rule="evenodd" d="M2.5 5.66667C2.5 3.45753 4.29086 1.66667 6.5 1.66667H13.5C15.7091 1.66667 17.5 3.45753 17.5 5.66667V14.3333C17.5 16.5425 15.7091 18.3333 13.5 18.3333H6.5C4.29086 18.3333 2.5 16.5425 2.5 14.3333V5.66667ZM7.58333 6.66667C7.58333 5.33198 8.66531 4.25001 10 4.25001C11.3347 4.25001 12.4167 5.33198 12.4167 6.66667V8.33334V10C12.4167 10.4142 12.0809 10.75 11.6667 10.75C11.2525 10.75 10.9167 10.4142 10.9167 10V9.08334H9.08333V10C9.08333 10.4142 8.74755 10.75 8.33333 10.75C7.91912 10.75 7.58333 10.4142 7.58333 10V8.33334V6.66667ZM10.9167 7.58334V6.66667C10.9167 6.16041 10.5063 5.75001 10 5.75001C9.49374 5.75001 9.08333 6.16041 9.08333 6.66667V7.58334H10.9167ZM5.91667 12.5C5.91667 12.0858 6.25245 11.75 6.66667 11.75H13.3333C13.7475 11.75 14.0833 12.0858 14.0833 12.5C14.0833 12.9142 13.7475 13.25 13.3333 13.25H6.66667C6.25245 13.25 5.91667 12.9142 5.91667 12.5ZM6.66667 14.25C6.25245 14.25 5.91667 14.5858 5.91667 15C5.91667 15.4142 6.25245 15.75 6.66667 15.75H10C10.4142 15.75 10.75 15.4142 10.75 15C10.75 14.5858 10.4142 14.25 10 14.25H6.66667Z" fill="#02040B"/>
</svg>
