<svg width="14" height="14" viewBox="0 0 14 14" fill="none" xmlns="http://www.w3.org/2000/svg">
<path fill-rule="evenodd" clip-rule="evenodd" d="M7.82132 1.46912C7.34814 1.06588 6.65219 1.06588 6.17901 1.46912L5.76175 1.8247C5.55898 1.9975 5.30687 2.10193 5.04131 2.12312L4.49482 2.16673C3.8751 2.21618 3.38299 2.70829 3.33354 3.32801L3.28993 3.8745C3.26874 4.14006 3.16431 4.39217 2.99151 4.59494L2.63593 5.0122C2.23269 5.48538 2.23269 6.18133 2.63593 6.65451L2.99151 7.07176C3.16431 7.27453 3.26874 7.52664 3.28993 7.79221L3.33354 8.33869C3.38299 8.95841 3.8751 9.45052 4.49482 9.49998L5.04131 9.54359C5.30687 9.56478 5.55898 9.66921 5.76175 9.842L6.17901 10.1976C6.65219 10.6008 7.34814 10.6008 7.82132 10.1976L8.23857 9.842C8.44134 9.66921 8.69345 9.56478 8.95902 9.54359L9.5055 9.49998C10.1252 9.45052 10.6173 8.95841 10.6668 8.33869L10.7104 7.79221C10.7316 7.52664 10.836 7.27453 11.0088 7.07176L11.3644 6.65451C11.7676 6.18133 11.7676 5.48538 11.3644 5.0122L11.0088 4.59494C10.836 4.39217 10.7316 4.14006 10.7104 3.8745L10.6668 3.32802C10.6173 2.70829 10.1252 2.21618 9.5055 2.16673L8.95902 2.12312C8.69345 2.10193 8.44134 1.9975 8.23857 1.8247L7.82132 1.46912ZM4.0835 11.9717V10.317C4.19423 10.3442 4.30838 10.3628 4.42522 10.3722L4.9717 10.4158C5.05372 10.4223 5.13159 10.4546 5.19421 10.5079L5.61147 10.8635C6.41169 11.5455 7.58864 11.5455 8.38886 10.8635L8.80611 10.5079C8.86874 10.4546 8.9466 10.4223 9.02862 10.4158L9.57511 10.3722C9.69194 10.3628 9.8061 10.3442 9.91683 10.317V11.9717C9.91683 12.3844 9.50002 12.6666 9.11685 12.5133L7.21681 11.7533C7.07773 11.6977 6.92259 11.6977 6.78352 11.7533L4.88347 12.5133C4.5003 12.6666 4.0835 12.3844 4.0835 11.9717Z" fill="#FBFBFB"/>
</svg>
