<svg width="20" height="20" viewBox="0 0 20 20" fill="none" xmlns="http://www.w3.org/2000/svg">
<g clip-path="url(#clip0_192_2842)">
<path d="M7.19249 8.69535C6.71364 7.73951 5.72503 7.08334 4.58317 7.08334C2.97234 7.08334 1.6665 8.38917 1.6665 10C1.6665 11.6108 2.97234 12.9167 4.58317 12.9167C5.72503 12.9167 6.71364 12.2605 7.19249 11.3047M7.19249 8.69535C7.38915 9.08792 7.49984 9.53104 7.49984 10C7.49984 10.469 7.38915 10.9121 7.19249 11.3047M7.19249 8.69535L12.8072 5.888M7.19249 11.3047L12.8072 14.112M12.8072 5.888C13.286 6.84384 14.2746 7.50001 15.4165 7.50001C17.0273 7.50001 18.3332 6.19417 18.3332 4.58334C18.3332 2.97251 17.0273 1.66667 15.4165 1.66667C13.8057 1.66667 12.4998 2.97251 12.4998 4.58334C12.4998 5.05231 12.6105 5.49543 12.8072 5.888ZM12.8072 14.112C12.6105 14.5046 12.4998 14.9477 12.4998 15.4167C12.4998 17.0275 13.8057 18.3333 15.4165 18.3333C17.0273 18.3333 18.3332 17.0275 18.3332 15.4167C18.3332 13.8058 17.0273 12.5 15.4165 12.5C14.2746 12.5 13.286 13.1562 12.8072 14.112Z" stroke="#28303F" stroke-width="1.5" stroke-linecap="round"/>
</g>
<defs>
<clipPath id="clip0_192_2842">
<rect width="20" height="20" fill="white"/>
</clipPath>
</defs>
</svg>
