<svg width="14" height="14" viewBox="0 0 14 14" fill="none" xmlns="http://www.w3.org/2000/svg">
<path fill-rule="evenodd" clip-rule="evenodd" d="M3.13679 2.88354L6.05219 1.58781C6.6555 1.31967 7.34418 1.31967 7.9475 1.58781L10.8513 2.8784C11.7005 3.25581 12.2579 4.10404 12.1984 5.03139C11.9702 8.58843 10.9532 10.1964 8.20421 12.0619C7.47874 12.5542 6.52174 12.553 5.79573 12.0615C3.05516 10.2061 2.00046 8.62054 1.79068 5.01891C1.73702 4.09766 2.29351 3.25833 3.13679 2.88354ZM9.31428 5.74384C9.58704 5.43211 9.55545 4.95829 9.24372 4.68553C8.93199 4.41277 8.45817 4.44436 8.18541 4.75608L6.77384 6.36931C6.68574 6.46999 6.53399 6.48348 6.42952 6.3999L5.71836 5.83098C5.39492 5.57222 4.92295 5.62466 4.66419 5.94811C4.40543 6.27155 4.45787 6.74352 4.78132 7.00228L5.49248 7.5712C6.22376 8.15623 7.28601 8.06186 7.9027 7.35707L9.31428 5.74384Z" fill="#FBFBFB"/>
</svg>
