<svg width="25" height="24" viewBox="0 0 25 24" fill="none" xmlns="http://www.w3.org/2000/svg">
<path fill-rule="evenodd" clip-rule="evenodd" d="M20.5 13.1707C20.1872 13.0602 19.8506 13 19.5 13H18.5C17.8705 13 17.2777 13.2964 16.9 13.8L15.7 15.4C14.9446 16.4072 13.759 17 12.5 17C11.241 17 10.0554 16.4072 9.3 15.4L8.1 13.8C7.72229 13.2964 7.12951 13 6.5 13H5.5C5.14936 13 4.81278 13.0602 4.5 13.1707V6C4.5 3.79086 6.29086 2 8.5 2H16.5C18.7091 2 20.5 3.79086 20.5 6V13.1707ZM9.5 9.25C9.08579 9.25 8.75 9.58579 8.75 10C8.75 10.4142 9.08579 10.75 9.5 10.75H12.5C12.9142 10.75 13.25 10.4142 13.25 10C13.25 9.58579 12.9142 9.25 12.5 9.25H9.5ZM8.75 6C8.75 5.58579 9.08579 5.25 9.5 5.25H15.5C15.9142 5.25 16.25 5.58579 16.25 6C16.25 6.41421 15.9142 6.75 15.5 6.75H9.5C9.08579 6.75 8.75 6.41421 8.75 6Z" fill="#60626A"/>
<path opacity="0.4" d="M22.5 19V16C22.5 14.3431 21.1569 13 19.5 13H18.5C17.8705 13 17.2777 13.2964 16.9 13.8L15.7 15.4C14.9446 16.4072 13.759 17 12.5 17C11.241 17 10.0554 16.4072 9.3 15.4L8.1 13.8C7.72229 13.2964 7.12951 13 6.5 13H5.5C3.84315 13 2.5 14.3431 2.5 16V19C2.5 20.6569 3.84315 22 5.5 22H19.5C21.1569 22 22.5 20.6569 22.5 19Z" fill="#60626A"/>
</svg>
