<svg width="25" height="24" viewBox="0 0 25 24" fill="none" xmlns="http://www.w3.org/2000/svg">
<path opacity="0.4" d="M22.5 12C22.5 15.0134 21.1672 17.7154 19.0588 19.5488C17.3031 21.0756 15.0095 22 12.5 22C9.99052 22 7.69694 21.0756 5.94117 19.5488C3.83285 17.7154 2.5 15.0134 2.5 12C2.5 6.47715 6.97715 2 12.5 2C18.0228 2 22.5 6.47715 22.5 12Z" fill="#60626A"/>
<path d="M19.0588 19.5488C18.0654 16.8918 15.5036 15 12.5 15C9.49637 15 6.93459 16.8918 5.94116 19.5488C7.69693 21.0756 9.99052 22 12.5 22C15.0095 22 17.3031 21.0756 19.0588 19.5488Z" fill="#60626A"/>
<circle cx="3" cy="3" r="3" transform="matrix(1 0 0 -1 9.5 13)" fill="#60626A"/>
</svg>
