<svg width="14" height="14" viewBox="0 0 14 14" fill="none" xmlns="http://www.w3.org/2000/svg">
<path fill-rule="evenodd" clip-rule="evenodd" d="M12.8332 7C12.8332 8.7578 12.0557 10.334 10.8258 11.4035C9.80162 12.2941 8.4637 12.8333 6.99984 12.8333C5.53597 12.8333 4.19805 12.2941 3.17385 11.4035C1.944 10.334 1.1665 8.7578 1.1665 7C1.1665 3.77834 3.77818 1.16667 6.99984 1.16667C10.2215 1.16667 12.8332 3.77834 12.8332 7ZM8.74984 5.25C8.74984 4.28351 7.96634 3.50001 6.99984 3.50001C6.03334 3.50001 5.24984 4.28351 5.24984 5.25C5.24984 6.2165 6.03334 7 6.99984 7C7.96634 7 8.74984 6.2165 8.74984 5.25ZM6.99984 8.16667C7.99893 8.16667 8.65594 8.70137 9.1192 9.2957C9.46484 9.73913 9.34588 10.3896 8.84446 10.6439C8.2904 10.925 7.66361 11.0833 6.99984 11.0833C6.33606 11.0833 5.70928 10.925 5.15521 10.6439C4.6538 10.3896 4.53483 9.73913 4.88047 9.2957C5.34373 8.70137 6.00074 8.16667 6.99984 8.16667Z" fill="#FBFBFB"/>
</svg>
